{
	"asset":{
		"generator":"Khronos glTF Blender I/O v4.1.62",
		"version":"2.0"
	},
	"scene":0,
	"scenes":[
		{
			"name":"Scene",
			"nodes":[
				0,
				26
			]
		}
	],
	"nodes":[
		{
			"camera":0,
			"name":"Camera",
			"rotation":[
				-0.0864376351237297,
				0.29946818947792053,
				0.02725445292890072,
				0.9497918486595154
			],
			"translation":[
				5.87589693069458,
				6.076297760009766,
				11.320993423461914
			]
		},
		{
			"name":"bone_foot_r",
			"rotation":[
				0.5992895364761353,
				9.543082057916763e-08,
				1.9049334554210873e-08,
				0.8005324006080627
			],
			"scale":[
				1,
				0.9999999403953552,
				0.9999999403953552
			],
			"translation":[
				-1.27675647831893e-15,
				0.23905934393405914,
				-1.3234889800848443e-23
			]
		},
		{
			"children":[
				1
			],
			"name":"bone_leg2_r",
			"rotation":[
				-1.0845178621821105e-07,
				-9.252449473251545e-09,
				-2.3748683020130557e-08,
				1
			],
			"translation":[
				-1.858169440538404e-08,
				0.32752224802970886,
				1.7763568394002505e-15
			]
		},
		{
			"children":[
				2
			],
			"name":"bone_leg1_r",
			"rotation":[
				-0.7049552798271179,
				0.09619417786598206,
				0.6959090232849121,
				0.09744446724653244
			],
			"scale":[
				1.0000015497207642,
				1.0000001192092896,
				1
			],
			"translation":[
				0.014849988743662834,
				0.0400143601000309,
				-0.2764991521835327
			]
		},
		{
			"name":"bone_head",
			"rotation":[
				1.0408340855860843e-17,
				1.2507835949732241e-39,
				1.0993810029003015e-16,
				1
			],
			"translation":[
				-4.2730763372134106e-11,
				0.1859123706817627,
				-6.771982974385082e-11
			]
		},
		{
			"children":[
				4
			],
			"name":"bone_neck",
			"rotation":[
				-6.938893903907228e-18,
				-4.656612873077393e-10,
				3.3176586478056436e-16,
				1
			],
			"translation":[
				-4.2730763372134106e-11,
				0.23607778549194336,
				1.651108139100188e-10
			]
		},
		{
			"name":"bone_hand_r",
			"rotation":[
				1.0863846719881133e-16,
				0,
				-3.1419818969627335e-16,
				1
			],
			"translation":[
				3.568260353858932e-09,
				0.5051718950271606,
				6.416331643777085e-08
			]
		},
		{
			"children":[
				6
			],
			"name":"bone_arm_02_r",
			"rotation":[
				1.0863846719881133e-16,
				0,
				-3.1419818969627335e-16,
				1
			],
			"translation":[
				3.568260353858932e-09,
				0.4698880612850189,
				6.416331643777085e-08
			]
		},
		{
			"children":[
				7
			],
			"name":"bone_arm_01_r",
			"rotation":[
				-0.7071067094802856,
				2.828448364411429e-09,
				4.102564954422405e-09,
				0.7071068286895752
			],
			"scale":[
				1,
				1,
				0.9999999403953552
			],
			"translation":[
				-8.326015432658096e-10,
				0.3467314839363098,
				2.410855870493833e-07
			]
		},
		{
			"children":[
				8
			],
			"name":"bone_shoulder_r",
			"rotation":[
				-0.7070920467376709,
				-0.004566246178001165,
				-0.00456624012440443,
				0.7070919871330261
			],
			"translation":[
				-0.022243674844503403,
				0.13577842712402344,
				-0.4170205295085907
			]
		},
		{
			"name":"bone_hand_l",
			"rotation":[
				-2.785687546216461e-17,
				8.881784197001252e-16,
				-2.517912472884672e-17,
				1
			],
			"translation":[
				-3.5682674592862895e-09,
				0.5051718950271606,
				-1.1191144722033641e-07
			]
		},
		{
			"children":[
				10
			],
			"name":"bone_arm_02_l",
			"rotation":[
				-5.776688467309075e-16,
				4.237272754892274e-09,
				-1.8015361643068054e-15,
				1
			],
			"translation":[
				-2.5874253850588502e-09,
				0.46988821029663086,
				-1.1098829588718218e-07
			]
		},
		{
			"children":[
				11
			],
			"name":"bone_arm_01_l",
			"rotation":[
				0.5000000596046448,
				-0.4999999403953552,
				0.4999999403953552,
				0.5
			],
			"scale":[
				0.9999998807907104,
				0.9999998807907104,
				0.9999999403953552
			],
			"translation":[
				2.2956876932767045e-07,
				0.346731573343277,
				-1.9955521679548838e-09
			]
		},
		{
			"children":[
				12
			],
			"name":"bone_shoulder_l",
			"rotation":[
				0.4967607855796814,
				0.496760755777359,
				0.503218412399292,
				0.503218412399292
			],
			"translation":[
				-0.03300700709223747,
				0.13577842712402344,
				0.41630685329437256
			]
		},
		{
			"children":[
				5,
				9,
				13
			],
			"name":"bone_chest",
			"rotation":[
				-4.439152438410754e-18,
				1.675353454743472e-25,
				-8.362068073972063e-17,
				1
			],
			"translation":[
				-4.272875109290197e-11,
				0.8764272928237915,
				1.65110800032231e-10
			]
		},
		{
			"children":[
				14
			],
			"name":"bone_spine_02",
			"rotation":[
				5.93192023279343e-11,
				4.656612873077393e-10,
				4.421279786726018e-09,
				1
			],
			"translation":[
				-3.4731023612621925e-10,
				0.7539677023887634,
				1.9876475465530064e-11
			]
		},
		{
			"children":[
				15
			],
			"name":"bone_spine_01",
			"rotation":[
				0.0017683886690065265,
				7.598546858389454e-08,
				-0.1369144469499588,
				0.9905813336372375
			],
			"translation":[
				2.2306744895672637e-08,
				0.299715131521225,
				2.2422774748065422e-10
			]
		},
		{
			"name":"bone_foot_l",
			"rotation":[
				0.5992895364761353,
				9.543082057916763e-08,
				1.9049318566999318e-08,
				0.8005324006080627
			],
			"scale":[
				1,
				0.9999999403953552,
				0.9999999403953552
			],
			"translation":[
				-3.3861802251067274e-15,
				0.23905931413173676,
				-8.881785255792436e-16
			]
		},
		{
			"children":[
				17
			],
			"name":"bone_leg2_l",
			"rotation":[
				-7.864946383051574e-08,
				-9.252447696894706e-09,
				-2.3399451265504467e-08,
				1
			],
			"translation":[
				-1.830844098549278e-08,
				0.3275222182273865,
				-1.7763568394002505e-15
			]
		},
		{
			"children":[
				18
			],
			"name":"bone_leg1_l",
			"rotation":[
				-0.7049553394317627,
				0.09619411826133728,
				0.6959089636802673,
				0.09744445979595184
			],
			"scale":[
				1.0000011920928955,
				1.0000001192092896,
				1
			],
			"translation":[
				0.007703705225139856,
				0.04001430422067642,
				0.27679046988487244
			]
		},
		{
			"name":"bone_tail_03",
			"rotation":[
				1.078591426242892e-14,
				-1.904130277185904e-15,
				4.809269903635074e-16,
				1
			],
			"translation":[
				-1.3322676295501878e-15,
				0.523779034614563,
				-7.105427357601002e-15
			]
		},
		{
			"children":[
				20
			],
			"name":"bone_tail_02",
			"rotation":[
				3.038480578254621e-11,
				-1.5437846556665136e-09,
				-4.341927706263959e-09,
				1
			],
			"scale":[
				1,
				0.9999999403953552,
				1
			],
			"translation":[
				8.936281936655632e-09,
				0.9092117547988892,
				0
			]
		},
		{
			"children":[
				21
			],
			"name":"bone_tail_01",
			"rotation":[
				0.005148428026586771,
				-0.003897936549037695,
				-0.7972513437271118,
				0.6036129593849182
			],
			"scale":[
				1.0000001192092896,
				1,
				1
			],
			"translation":[
				0.2718353569507599,
				0.5227488875389099,
				0.0035110393073409796
			]
		},
		{
			"children":[
				3,
				16,
				19,
				22
			],
			"name":"bone_pelvis",
			"rotation":[
				-0.0008842078386805952,
				0.006396743468940258,
				0.13692300021648407,
				0.9905606508255005
			],
			"scale":[
				1,
				0.9999999403953552,
				1
			],
			"translation":[
				0,
				0.5912266969680786,
				0
			]
		},
		{
			"children":[
				23
			],
			"name":"bone_root",
			"rotation":[
				0,
				0.7071067690849304,
				0,
				0.7071067690849304
			],
			"scale":[
				1,
				0.9999999403953552,
				1
			]
		},
		{
			"mesh":0,
			"name":"statue_mesh",
			"skin":0
		},
		{
			"children":[
				25,
				24
			],
			"name":"statue",
			"translation":[
				0,
				0.08593755960464478,
				0
			]
		}
	],
	"cameras":[
		{
			"name":"Camera",
			"perspective":{
				"aspectRatio":1.7777777777777777,
				"yfov":0.39959652046304894,
				"zfar":1000,
				"znear":0.10000000149011612
			},
			"type":"perspective"
		}
	],
	"animations":[
		{
			"channels":[
				{
					"sampler":0,
					"target":{
						"node":24,
						"path":"translation"
					}
				}
			],
			"name":"floating",
			"samplers":[
				{
					"input":25,
					"interpolation":"LINEAR",
					"output":26
				}
			]
		},
		{
			"channels":[
				{
					"sampler":0,
					"target":{
						"node":16,
						"path":"rotation"
					}
				},
				{
					"sampler":1,
					"target":{
						"node":15,
						"path":"rotation"
					}
				},
				{
					"sampler":2,
					"target":{
						"node":5,
						"path":"rotation"
					}
				},
				{
					"sampler":3,
					"target":{
						"node":13,
						"path":"rotation"
					}
				},
				{
					"sampler":4,
					"target":{
						"node":12,
						"path":"rotation"
					}
				}
			],
			"name":"sayHi",
			"samplers":[
				{
					"input":27,
					"interpolation":"LINEAR",
					"output":28
				},
				{
					"input":27,
					"interpolation":"LINEAR",
					"output":29
				},
				{
					"input":27,
					"interpolation":"LINEAR",
					"output":30
				},
				{
					"input":27,
					"interpolation":"LINEAR",
					"output":31
				},
				{
					"input":27,
					"interpolation":"LINEAR",
					"output":32
				}
			]
		},
		{
			"channels":[
				{
					"sampler":0,
					"target":{
						"node":22,
						"path":"rotation"
					}
				}
			],
			"name":"sippo",
			"samplers":[
				{
					"input":27,
					"interpolation":"LINEAR",
					"output":33
				}
			]
		}
	],
	"materials":[
		{
			"doubleSided":true,
			"name":"skin_main",
			"pbrMetallicRoughness":{
				"baseColorFactor":[
					0.7758176326751709,
					0.6307579278945923,
					0.3662528395652771,
					1
				],
				"metallicFactor":0
			}
		},
		{
			"doubleSided":true,
			"name":"skin_sub",
			"pbrMetallicRoughness":{
				"baseColorFactor":[
					1,
					0.9046216607093811,
					0.7604696154594421,
					1
				],
				"metallicFactor":0
			}
		},
		{
			"doubleSided":true,
			"name":"outline",
			"pbrMetallicRoughness":{
				"baseColorFactor":[
					0.10225897282361984,
					0.06662304699420929,
					0.038201622664928436,
					1
				],
				"metallicFactor":0
			}
		},
		{
			"doubleSided":true,
			"name":"ko",
			"pbrMetallicRoughness":{
				"baseColorFactor":[
					0,
					0,
					0,
					1
				],
				"metallicFactor":0
			}
		}
	],
	"meshes":[
		{
			"name":"Cube.003",
			"primitives":[
				{
					"attributes":{
						"POSITION":0,
						"NORMAL":1,
						"TEXCOORD_0":2,
						"JOINTS_0":3,
						"WEIGHTS_0":4
					},
					"indices":5,
					"material":0
				},
				{
					"attributes":{
						"POSITION":6,
						"NORMAL":7,
						"TEXCOORD_0":8,
						"JOINTS_0":9,
						"WEIGHTS_0":10
					},
					"indices":11,
					"material":1
				},
				{
					"attributes":{
						"POSITION":12,
						"NORMAL":13,
						"TEXCOORD_0":14,
						"JOINTS_0":15,
						"WEIGHTS_0":16
					},
					"indices":17,
					"material":2
				},
				{
					"attributes":{
						"POSITION":18,
						"NORMAL":19,
						"TEXCOORD_0":20,
						"JOINTS_0":21,
						"WEIGHTS_0":22
					},
					"indices":23,
					"material":3
				}
			]
		}
	],
	"skins":[
		{
			"inverseBindMatrices":24,
			"joints":[
				24,
				23,
				3,
				2,
				1,
				16,
				15,
				14,
				5,
				4,
				9,
				8,
				7,
				6,
				13,
				12,
				11,
				10,
				19,
				18,
				17,
				22,
				21,
				20
			],
			"name":"statue"
		}
	],
	"accessors":[
		{
			"bufferView":0,
			"componentType":5126,
			"count":786,
			"max":[
				2.0851449966430664,
				4.6960954666137695,
				1.8211606740951538
			],
			"min":[
				-2.0851449966430664,
				0.2307318150997162,
				-2.9879391193389893
			],
			"type":"VEC3"
		},
		{
			"bufferView":1,
			"componentType":5126,
			"count":786,
			"type":"VEC3"
		},
		{
			"bufferView":2,
			"componentType":5126,
			"count":786,
			"type":"VEC2"
		},
		{
			"bufferView":3,
			"componentType":5121,
			"count":786,
			"type":"VEC4"
		},
		{
			"bufferView":4,
			"componentType":5126,
			"count":786,
			"type":"VEC4"
		},
		{
			"bufferView":5,
			"componentType":5123,
			"count":2097,
			"type":"SCALAR"
		},
		{
			"bufferView":6,
			"componentType":5126,
			"count":116,
			"max":[
				1.9900199174880981,
				4.528337478637695,
				0.25383827090263367
			],
			"min":[
				-1.9900199174880981,
				0.08593732118606567,
				-2.9879391193389893
			],
			"type":"VEC3"
		},
		{
			"bufferView":7,
			"componentType":5126,
			"count":116,
			"type":"VEC3"
		},
		{
			"bufferView":8,
			"componentType":5126,
			"count":116,
			"type":"VEC2"
		},
		{
			"bufferView":9,
			"componentType":5121,
			"count":116,
			"type":"VEC4"
		},
		{
			"bufferView":10,
			"componentType":5126,
			"count":116,
			"type":"VEC4"
		},
		{
			"bufferView":11,
			"componentType":5123,
			"count":168,
			"type":"SCALAR"
		},
		{
			"bufferView":12,
			"componentType":5126,
			"count":273,
			"max":[
				0.5157136917114258,
				4.426934242248535,
				1.7471226453781128
			],
			"min":[
				-0.5157139301300049,
				3.4564599990844727,
				0.6888724565505981
			],
			"type":"VEC3"
		},
		{
			"bufferView":13,
			"componentType":5126,
			"count":273,
			"type":"VEC3"
		},
		{
			"bufferView":14,
			"componentType":5126,
			"count":273,
			"type":"VEC2"
		},
		{
			"bufferView":15,
			"componentType":5121,
			"count":273,
			"type":"VEC4"
		},
		{
			"bufferView":16,
			"componentType":5126,
			"count":273,
			"type":"VEC4"
		},
		{
			"bufferView":17,
			"componentType":5123,
			"count":420,
			"type":"SCALAR"
		},
		{
			"bufferView":18,
			"componentType":5126,
			"count":33,
			"max":[
				0.11580467224121094,
				3.8848230838775635,
				1.8211606740951538
			],
			"min":[
				-0.11580496281385422,
				3.6776506900787354,
				1.7093182802200317
			],
			"type":"VEC3"
		},
		{
			"bufferView":19,
			"componentType":5126,
			"count":33,
			"type":"VEC3"
		},
		{
			"bufferView":20,
			"componentType":5126,
			"count":33,
			"type":"VEC2"
		},
		{
			"bufferView":21,
			"componentType":5121,
			"count":33,
			"type":"VEC4"
		},
		{
			"bufferView":22,
			"componentType":5126,
			"count":33,
			"type":"VEC4"
		},
		{
			"bufferView":23,
			"componentType":5123,
			"count":72,
			"type":"SCALAR"
		},
		{
			"bufferView":24,
			"componentType":5126,
			"count":24,
			"type":"MAT4"
		},
		{
			"bufferView":25,
			"componentType":5126,
			"count":25,
			"max":[
				1.0416666666666667
			],
			"min":[
				0.041666666666666664
			],
			"type":"SCALAR"
		},
		{
			"bufferView":26,
			"componentType":5126,
			"count":25,
			"type":"VEC3"
		},
		{
			"bufferView":27,
			"componentType":5126,
			"count":60,
			"max":[
				2.5
			],
			"min":[
				0.041666666666666664
			],
			"type":"SCALAR"
		},
		{
			"bufferView":28,
			"componentType":5126,
			"count":60,
			"type":"VEC4"
		},
		{
			"bufferView":29,
			"componentType":5126,
			"count":60,
			"type":"VEC4"
		},
		{
			"bufferView":30,
			"componentType":5126,
			"count":60,
			"type":"VEC4"
		},
		{
			"bufferView":31,
			"componentType":5126,
			"count":60,
			"type":"VEC4"
		},
		{
			"bufferView":32,
			"componentType":5126,
			"count":60,
			"type":"VEC4"
		},
		{
			"bufferView":33,
			"componentType":5126,
			"count":60,
			"type":"VEC4"
		}
	],
	"bufferViews":[
		{
			"buffer":0,
			"byteLength":9432,
			"byteOffset":0,
			"target":34962
		},
		{
			"buffer":0,
			"byteLength":9432,
			"byteOffset":9432,
			"target":34962
		},
		{
			"buffer":0,
			"byteLength":6288,
			"byteOffset":18864,
			"target":34962
		},
		{
			"buffer":0,
			"byteLength":3144,
			"byteOffset":25152,
			"target":34962
		},
		{
			"buffer":0,
			"byteLength":12576,
			"byteOffset":28296,
			"target":34962
		},
		{
			"buffer":0,
			"byteLength":4194,
			"byteOffset":40872,
			"target":34963
		},
		{
			"buffer":0,
			"byteLength":1392,
			"byteOffset":45068,
			"target":34962
		},
		{
			"buffer":0,
			"byteLength":1392,
			"byteOffset":46460,
			"target":34962
		},
		{
			"buffer":0,
			"byteLength":928,
			"byteOffset":47852,
			"target":34962
		},
		{
			"buffer":0,
			"byteLength":464,
			"byteOffset":48780,
			"target":34962
		},
		{
			"buffer":0,
			"byteLength":1856,
			"byteOffset":49244,
			"target":34962
		},
		{
			"buffer":0,
			"byteLength":336,
			"byteOffset":51100,
			"target":34963
		},
		{
			"buffer":0,
			"byteLength":3276,
			"byteOffset":51436,
			"target":34962
		},
		{
			"buffer":0,
			"byteLength":3276,
			"byteOffset":54712,
			"target":34962
		},
		{
			"buffer":0,
			"byteLength":2184,
			"byteOffset":57988,
			"target":34962
		},
		{
			"buffer":0,
			"byteLength":1092,
			"byteOffset":60172,
			"target":34962
		},
		{
			"buffer":0,
			"byteLength":4368,
			"byteOffset":61264,
			"target":34962
		},
		{
			"buffer":0,
			"byteLength":840,
			"byteOffset":65632,
			"target":34963
		},
		{
			"buffer":0,
			"byteLength":396,
			"byteOffset":66472,
			"target":34962
		},
		{
			"buffer":0,
			"byteLength":396,
			"byteOffset":66868,
			"target":34962
		},
		{
			"buffer":0,
			"byteLength":264,
			"byteOffset":67264,
			"target":34962
		},
		{
			"buffer":0,
			"byteLength":132,
			"byteOffset":67528,
			"target":34962
		},
		{
			"buffer":0,
			"byteLength":528,
			"byteOffset":67660,
			"target":34962
		},
		{
			"buffer":0,
			"byteLength":144,
			"byteOffset":68188,
			"target":34963
		},
		{
			"buffer":0,
			"byteLength":1536,
			"byteOffset":68332
		},
		{
			"buffer":0,
			"byteLength":100,
			"byteOffset":69868
		},
		{
			"buffer":0,
			"byteLength":300,
			"byteOffset":69968
		},
		{
			"buffer":0,
			"byteLength":240,
			"byteOffset":70268
		},
		{
			"buffer":0,
			"byteLength":960,
			"byteOffset":70508
		},
		{
			"buffer":0,
			"byteLength":960,
			"byteOffset":71468
		},
		{
			"buffer":0,
			"byteLength":960,
			"byteOffset":72428
		},
		{
			"buffer":0,
			"byteLength":960,
			"byteOffset":73388
		},
		{
			"buffer":0,
			"byteLength":960,
			"byteOffset":74348
		},
		{
			"buffer":0,
			"byteLength":960,
			"byteOffset":75308
		}
	],
	"buffers":[
		{
			"byteLength":76268,
			"uri":"portfolio.bin"
		}
	]
}
